<?xml version="1.0" encoding="UTF-8" standalone="no"?>
<!-- Created with Inkscape (http://www.inkscape.org/) -->
<svg
   xmlns:svg="http://www.w3.org/2000/svg"
   xmlns="http://www.w3.org/2000/svg"
   version="1.0"
   width="853"
   height="223"
   viewBox="-0.063 -0.965 853 223"
   id="svg2"
   xml:space="preserve">
	<defs
   id="defs4">
	</defs>
	<g
   id="g6">
		<polyline
   fill-rule="evenodd"
   clip-rule="evenodd"
   points="787.146,218.95 847.62,218.95 852.024,194.644 820.755,194.644     834.71,117.671 805.521,117.671 787.146,218.95 "
   id="polyline8"
   style="fill-rule:evenodd" />
		<polyline
   fill-rule="evenodd"
   clip-rule="evenodd"
   points="705.237,218.95 767.796,218.95 772.21,194.644 738.841,194.644     741.78,178.433 772.015,178.433 776.063,156.157 745.823,156.157 748.396,141.978 781.761,141.978 786.165,117.671     723.611,117.671 705.237,218.95 "
   id="polyline10"
   style="fill-rule:evenodd" />
		<polyline
   fill-rule="evenodd"
   clip-rule="evenodd"
   points="588.919,218.95 618.113,218.95 625.467,178.433 660.921,178.433     653.563,218.95 682.762,218.95 701.136,117.671 671.941,117.671 665.325,154.131 629.876,154.131 636.492,117.671     607.298,117.671 588.919,218.95 "
   id="polyline12"
   style="fill-rule:evenodd" />
		<path
   d="M 576.678,185.532 C 570.345,190.884 560.833,196.528 549.954,196.528 C 533.274,196.528 525.476,184.507 528.255,169.179 C 531.277,152.538 544.105,140.092 560.198,140.092 C 571.37,140.092 578.46,146.166 582.718,152.25 L 588.05,122.875 C 580.316,117.089 570.15,114.774 560.921,114.774 C 532.62,114.774 504.466,134.457 498.328,168.309 C 492.444,200.716 510.95,221.869 541.936,221.869 C 550.867,221.869 560.94,220.565 571.457,214.32 L 576.678,185.532"
   style="fill-rule:evenodd"
   id="path14" />
		<polyline
   fill-rule="evenodd"
   clip-rule="evenodd"
   points="411.849,218.95 474.402,218.95 478.816,194.644 445.452,194.644     448.392,178.433 478.626,178.433 482.669,156.157 452.435,156.157 455.013,141.978 488.372,141.978 492.781,117.671     430.223,117.671 411.849,218.95 "
   id="polyline16"
   style="fill-rule:evenodd" />
		<g
   id="g18">
			<polyline
   fill-rule="evenodd"
   clip-rule="evenodd"
   points="271.253,218.95 299.251,218.95 317.659,160.205 324.578,218.95      343.348,218.95 371.575,160.205 368.665,218.95 396.668,218.95 399.852,117.671 370.657,117.671 341.126,179.458      334.012,117.671 304.817,117.671 271.253,218.95 "
   id="polyline20"
   style="fill-rule:evenodd" />
			<path
   d="M 76.487,162.295 C 70.091,183.794 52.908,218.013 26.443,219.233 C -4.753,220.669 -3.376,183.72 5.51,157.778 C 44.632,43.54 157.142,6.36 229.422,0.19 C 169.31,27.2 103.152,72.734 76.487,162.295"
   style="fill:#a8a8a8;fill-rule:evenodd"
   id="path22" />
		</g>
		<path
   d="M 164.354,162.295 C 157.948,183.794 140.765,218.013 114.3,219.233 C 83.109,220.669 84.495,183.72 93.372,157.778 C 132.498,43.54 245.003,6.36 317.283,0.19 C 257.181,27.2 191.019,72.734 164.354,162.295"
   style="fill:#4793c4;fill-rule:evenodd"
   id="path24" />
		<path
   d="M 253.216,162.1 C 246.81,183.609 229.632,217.808 203.162,219.048 C 171.966,220.484 173.348,183.526 182.229,157.583 C 221.36,43.35 333.86,6.165 406.146,0 C 346.043,27.009 279.876,72.539 253.216,162.1"
   style="fill:#1f1f20;fill-rule:evenodd"
   id="path26" />
	</g>
</svg>