<?xml version="1.0" encoding="utf-8"?>
<!-- Generator: Adobe Illustrator 28.0.0, SVG Export Plug-In . SVG Version: 6.00 Build 0)  -->
<svg version="1.1" id="Слой_1" xmlns="http://www.w3.org/2000/svg" xmlns:xlink="http://www.w3.org/1999/xlink" x="0px" y="0px"
	 viewBox="0 0 1000 310.9243774" enable-background="new 0 0 1000 310.9243774" xml:space="preserve">
<path fill="#002F6C" d="M65.5495758,265.197052C23.071806,265.197052,0,234.5911713,0,196.2428589
	c0-38.7394867,27.1573105-70.5193329,71.7479019-70.5193329c11.8365555,0,22.1063004,1.5512695,31.0327682,6.2050476v24.9878082
	c-11.8365555-6.9735107-21.3226929-8.3432617-30.05336-8.3432617c-30.2495766,0-41.4145813,22.290741-41.4145813,45.7272949
	c0,26.1479187,14.0612164,46.8731079,38.6860123,46.8731079c10.8714294,0,19.6159668-3.0046082,30.0815125-8.6226807
	l7.5415955,20.250412C91.9373932,262.6815186,78.5336151,265.197052,65.5495758,265.197052z M543.2016602,265.197052
	c-31.4243469,0-47.5125732-23.0453796-47.5125732-50.5487366c0-30.8016663,21.3361206-51.1495667,49.8361816-51.1495667
	c12.6050415,0,19.1974487,2.5155334,24.4285278,5.6180725v22.0949402
	c-6.9832153-5.0449524-12.6050415-6.7920227-20.3571777-6.7920227c-16.0924072,0-26.4579468,11.8231201-26.4579468,28.8731079
	c0,15.302948,8.0294189,30.2147217,26.0671997,30.2147217c5.0336304,0,11.710083-2.1802521,18.8739624-5.8558807
	l6.7142944,18.2516632C566.6638794,261.3260498,553.0924683,265.197052,543.2016602,265.197052z M630.6050415,187.5222626
	v75.7462311h-27.9243774v-75.7462311h-27.1428833v-22.0810852h85.7227783l-6.0588379,22.0810852H630.6050415z
	 M765.6513062,176.8731079c0,34.0857086-1.3572388,51.9184875-7.5546265,60.0520935
	c-3.1050415,4.066803-7.949585,6.7920227-13.000061,7.5466461l7.7520752,20.7252045
	c6.3950195-0.1953735,16.2984009-2.9067078,23.0840454-9.6848602c8.9285889-8.7205963,11.8235474-19.7609406,13.1807251-31.3886566
	c1.1638184-9.8802643,1.9453735-21.4937134,1.9453735-31.7655487v-4.8495789h21.840332v75.7462006h27.9285889v-97.827301
	h-75.1764526V176.8731079z M448.9957886,163.4987488c-10.8571167,0-19.1932678,5.2407532-26.369751,10.8588257l-3.1079712-8.9163971
	h-23.4638367v145.4832001l27.9289551-8.5248108V261.130249c5.0504456,2.7113647,11.6386719,4.066803,18.815155,4.066803
	c28.8949585,0,46.340332-24.5966187,46.340332-53.6512451C489.1386719,180.5487366,471.4958191,163.4987488,448.9957886,163.4987488
	z M436.0126343,245.0588379c-5.0504456,0-8.9243774-1.7470703-12.0294495-3.8714447v-46.2999878
	c3.2983398-5.0311127,12.0294495-11.0403442,19.3907776-11.0403442c11.2478638,0,17.8403015,7.1693268,17.8403015,27.3214264
	C461.2142639,227.8273163,455.0126038,245.0588379,436.0126343,245.0588379z M701.3865356,163.4987488
	c-13.1932983,0-25.9663696,2.040329-39.369751,10.7050323l8.4664307,16.8823547
	c6.5756226-3.7033691,15.0378418-6.5823517,24.9453125-6.5823517c9.6807251,0,18.3446045,4.2764587,18.3446045,14.5621796v1.6630249
	l-16.9327393,0.6428528c-24.7059326,0.8243713-41.399231,11.5298462-41.399231,32.1151428
	c0,19.370163,13.9915771,31.7100677,32.5420532,31.7100677c12.5924072,0,21.239502-4.7235413,27.6218262-10.4953766
	l4.3361206,8.5668182h21.8529663V199.736969C741.7941284,173.9941101,727.369751,163.4987488,701.3865356,163.4987488z
	 M713.7731323,239.0491638c-2.6765137,2.0546265-8.2563477,4.5281525-15.6723022,4.5281525
	c-9.5,0-14.8444824-4.7378235-14.8444824-12.1306763c0-7.4205933,5.7646484-11.5294037,17.7268677-11.9487305l12.789917-0.4054718
	V239.0491638z M895.0714111,197.2071381h-14.3571167v-36.0281525l-27.9243774,7.4764709v94.6130371h35.6932983
	c25.9789429,0,50.2268677-6.9873962,50.2268677-33.9042053C938.710083,206.5147095,919.1218872,197.2071381,895.0714111,197.2071381
	z M890.4117432,243.9684906h-9.6974487v-27.3075714h9.3193359c9.8781738,0,20.7520752,1.5512695,20.7520752,13.1647186
	C910.7857056,241.2575684,901.4663696,243.9684906,890.4117432,243.9684906z M270.593689,209.9945374v-0.7823486
	c9.1083984-1.9285736,16.6777344-7.9382477,16.6777344-20.7256317c0-15.2609253-12.8302307-20.8231049-25.436554-22.5142822
	c-3.8613281-0.5168152-12.3264618-0.5310974-17.0415955-0.5310974h-39.9172211v97.8273163h33.5235291
	c3.70755,0,9.234024-0.0138855,13.5432739-0.1394958c17.6294403-0.8386536,39.4000092-7.1277466,39.4000092-29.89328
	C291.342865,219.2882385,283.7735291,212.3146973,270.593689,209.9945374z M233.3483124,184.0705872h11.4449615
	c11.4310913,0,15.712616,3.4936981,15.712616,9.5029449c0,7.5466309-6.9819336,9.866806-18.6226959,9.866806h-8.5348816V184.0705872
	z M244.2058716,244.7092438h-11.4449463v-24.0235291h10.0878143c13.3756256,0,20.55336,3.1025238,20.55336,11.8231201
	C263.4020996,241.8025208,253.9016876,244.7092438,244.2058716,244.7092438z M195.6836243,213.4886475
	c0-30.2289886-18.6226959-49.9898987-45.3882446-49.9898987c-29.2836151,0-45.7655487,23.6323547-45.7655487,51.1495667
	c0,25.7567291,14.3550415,50.5487366,49.263443,50.5487366c11.8226929,0,25.0029449-2.697052,38.5882416-11.2361298
	l-6.2121887-17.6226807c-11.0529327,5.2407532-18.2306824,6.973526-27.7306671,6.973526
	c-12.9983215,0-25.4084015-8.133606-25.9962311-21.3121948h63.2411957V213.4886475z M131.8689117,202.8394928
	c0-8.9163818,6.4079895-18.9924316,17.64328-18.9924316c11.8504181,0,17.0693207,9.6848755,17.657135,18.9924316H131.8689117z
	 M388.0651245,213.4886475c0-30.2289886-18.6222839-49.9898987-45.3878174-49.9898987
	c-29.2840271,0-45.7659607,23.6323547-45.7659607,51.1495667c0,25.7567291,14.3550415,50.5487366,49.2638855,50.5487366
	c11.8226624,0,25.0163574-2.697052,38.5882263-11.2361298l-6.2121887-17.6226807
	c-11.0395203,5.2407532-18.2310791,6.973526-27.7310791,6.973526c-12.9840698,0-25.3941345-8.133606-25.9819641-21.3121948
	h63.2268982V213.4886475z M324.2504272,202.8394928c0-8.9163818,6.4079895-18.9924316,17.6432495-18.9924316
	c11.8365784,0,17.0693359,9.6848755,17.6571655,18.9924316H324.2504272z"/>
<path fill="#002F6C" d="M988.420166,96.3336182c-1.5924072,1.103775-3.2310791,1.9701614-4.8949585,2.5012512
	c-5.5251465,1.7470627-12.340332,0.1399231-18.4537964-2.3756256c-4.3655396-1.8029404-8.9411011-4.1365585-13.7394409-7.0857086
	c2.5041504-6.1071472,4.8529663-13.0806808,6.8529053-20.7949677c3.1092529-11.9768867,4.5924683-22.5281487,4.8991699-31.7939453
	C963.2815552,31.0547466,963,25.8139915,962.369812,21.0484028c-0.8656006-6.5544119-2.8823853-13.2206297-7.1638794-17.1477013
	c-1.3571777-1.2158532-3.0084229-2.236059-4.8529663-3.0745759c8.7436523-0.9503215,16.5084229-1.0201912,23.3654785-0.5170798
	c7.2059326,0.6149117,14.5336304,2.3897774,18.8151855,6.5823822c4.2814941,4.1925635,6.1722412,11.5016823,6.9285278,18.6710091
	c0.6975098,6.8478985,0.7563477,14.6042004-0.0587769,23.3808422c-0.8235474,8.6504211-2.5042114,18.2655449-5.260498,28.9285698
	h0.0167847C992.4243774,84.4684906,990.4369507,90.771431,988.420166,96.3336182z M882.8277588,90.9109268
	c-0.1680908-1.9285736-0.0966797-3.7873993,0.2814331-5.4924393c1.2437744-5.659668,6.0420532-10.7327728,11.289978-14.7857132
	c3.7520752-2.8647079,8.0462036-5.6600876,13.0126343-8.3432808c4.0419922,5.2268867,8.9117432,10.7331963,14.6050415,16.3231163
	c8.8319092,8.6789856,17.2394409,15.2331924,25.1176147,20.1243591c4.869751,3.0327835,9.5419922,5.4088287,13.9915771,7.2533722
	c6.1134644,2.5155411,12.8991699,4.1226807,18.4537964,2.3756256c1.7352905-0.5726852,3.4411621-1.4810867,5.0924683-2.6550369
	c-3.5546875,8.0357056-7.3739624,14.7995758-11.2353516,20.4739456
	c-4.1428223,5.9252014-9.3319092,11.3894958-15.1091919,12.9827728c-5.7815552,1.607132-13.0546265-0.4050446-19.6470337-3.33992
	c-6.2815552-2.8092346-13.0379028-6.6525116-20.2437744-11.7394867
	c-7.0797729-5.0310974-14.5924072-11.2920151-22.4579468-19.0201721
	C891.1260376,100.3025208,886.6344604,95.4390793,882.8277588,90.9109268z M940.1806641,2.2655923
	c1.7605591,0.824542,3.3276978,1.8167899,4.6176758,2.9907105c4.2814941,3.9131098,6.2814941,10.6072693,7.1765137,17.1616821
	c0.6134033,4.6677723,0.8822632,9.7967224,0.7268066,15.4287376c-6.5629883,0.8804626-13.7688599,2.3339081-21.4621582,4.472187
	c-11.9369507,3.2978973-21.8276978,7.2949562-30.0125732,11.6693268c-5.0630493,2.6970596-9.4705811,5.548317-13.2773438,8.4831963
	c-5.2479248,4.0247917-10.0336304,9.0978966-11.289917,14.7718468c-0.3781738,1.7886581-0.449585,3.7172318-0.239502,5.7298355
	c-5.1890869-7.0857239-9.1512451-13.7798309-12.130249-19.9567261c-3.0756226-6.5407562-5.2058716-13.7659683-3.7058716-19.5655479
	c1.4957886-5.7997475,6.8823242-11.096386,12.7184448-15.3169327c5.579834-4.0388641,12.2815552-7.9659233,20.2983398-11.641428
	c7.9075928-3.6056309,17.1008301-6.9736977,27.7185059-9.9085293C927.8949585,4.739202,934.3613892,3.2997646,940.1806641,2.2655923
	z"/>
</svg>
